<?xml version="1.0" encoding="UTF-8" standalone="no"?>
<svg width="14px" height="18px" viewBox="0 0 14 18" version="1.1" xmlns="http://www.w3.org/2000/svg" xmlns:xlink="http://www.w3.org/1999/xlink">
    <!-- Generator: Sketch 3.8.3 (29802) - http://www.bohemiancoding.com/sketch -->
    <title>25</title>
    <desc>Created with Sketch.</desc>
    <defs></defs>
    <g id="Screens" stroke="none" stroke-width="1" fill="none" fill-rule="evenodd">
        <g id="Task-Activity" transform="translate(-1114.000000, -367.000000)" fill="#A5AAB3">
            <g id="25" transform="translate(1114.000000, 367.000000)">
                <path d="M2.25,4.5 L0,4.5 L0,18 L13.5,18 L13.5,4.5 L2.25,4.5 L2.25,4.5 Z M2.25,6.75 L4.5,6.75 L4.5,15.75 L2.25,15.75 L2.25,6.75 Z M5.625,6.75 L7.875,6.75 L7.875,15.75 L5.625,15.75 L5.625,6.75 Z M9,6.75 L11.25,6.75 L11.25,15.75 L9,15.75 L9,6.75 Z" id="Fill-47"></path>
                <polyline id="Fill-48" points="13.5 3.375 13.5 1.125 7.875 1.125 7.875 0 5.625 0 5.625 1.125 0 1.125 0 3.375 13.5 3.375"></polyline>
            </g>
        </g>
    </g>
</svg>